PathFileType	4	(X/Y/Z)	40_2_16_p0_0-227.trc
DataRate	CameraRate	NumFrames	NumMarkers	Units	OrigDataRate	OrigDataStartFrame	OrigNumFrames
59.0	59.0	7	27	m	59.0	199	228
Frame#	Time	RHip			RKnee			RAnkle			RBigToe			RSmallToe			RHeel			LHip			LKnee			LAnkle			LBigToe			LSmallToe			LHeel			Neck			Head			Nose			RShoulder			RElbow			RWrist			RThumb			RIndex			RPinky			LShoulder			LElbow			LWrist			LThumb			LIndex			LPinky			
		X1	Y1	Z1	X2	Y2	Z2	X3	Y3	Z3	X4	Y4	Z4	X5	Y5	Z5	X6	Y6	Z6	X7	Y7	Z7	X8	Y8	Z8	X9	Y9	Z9	X10	Y10	Z10	X11	Y11	Z11	X12	Y12	Z12	X13	Y13	Z13	X14	Y14	Z14	X15	Y15	Z15	X16	Y16	Z16	X17	Y17	Z17	X18	Y18	Z18	X19	Y19	Z19	X20	Y20	Z20	X21	Y21	Z21	X22	Y22	Z22	X23	Y23	Z23	X24	Y24	Z24	X25	Y25	Z25	X26	Y26	Z26	X27	Y27	Z27	
199	3.3728813559322033	0.35043161878150836	0.5989439753213348	0.883604024818298	0.31759177917790604	0.71227526757931	1.3043887496314122	0.3201375242989938	0.890390036404285	1.7209008722818844	0.31847481195853605	0.6931181951075558	1.7207558576511286	0.37301399669603486	0.7032558591464289	1.7187975184889928	0.2835273350611483	1.0014734444620874	1.7893027022134427	0.13123612238116847	0.5952961259965601	0.8889796241693	0.11517445852067719	0.7399964072018294	1.3161884502302748	0.09811736897615153	0.8635883109295708	1.7264354788795366	0.13990806824180735	0.6245695610535699	1.6975279443231963	0.08798012720220019	0.6930295345369901	1.721644266131624	0.10242715282910393	0.92374960179226	1.7701024931124063	0.2595999126087912	0.4825510201817197	0.33907039413809203	0.2630500575700981	0.42159747632170613	0.1088502962570019	0.26852780857120623	0.33275482914703386	0.2265928030942717	0.4019977292651984	0.5099560407115644	0.44071872265495615	0.45853880264006713	0.5789230362003959	0.6892670285740061	0.5259026627319057	0.5367454982783155	0.9432648800158078	0.5959555767337193	0.4533414827751528	1.0244444420783148	0.6378386270941893	0.47793172602602585	1.0291268909519362	0.601277349858801	0.552670575505162	1.037614798916662	0.09180834649120549	0.5382722261849612	0.4132011954992031	0.07670145047686291	0.5410856888850687	0.6757321829696079	-0.026881642323641965	0.5284248636479465	0.9153683226412652	-0.07749615409307721	0.4794298736227126	1.0005948299480756	-0.1343917274668203	0.5137950733535578	1.026807799222506	-0.10802090832701874	0.6176599740750366	1.0402593330777516
200	3.389830508474576	0.3530392858423146	0.5718513300413111	0.8762194948791946	0.32179781578965555	0.7145205253133233	1.3045560498513393	0.32017354669062964	0.8906485087602461	1.721027439195503	0.318413955431629	0.692583216356092	1.7208881774948614	0.3725743720772752	0.7020074624918348	1.7187669598689583	0.2823873619900404	1.0035650654759487	1.794198948311345	0.1344689276955634	0.5947094177286022	0.8801687214775499	0.11483849135503876	0.7367937061737821	1.3105855552101242	0.09365761461375802	0.857877789939978	1.7201740341222778	0.14098623061084745	0.6228979897284056	1.6931695438798084	0.0869906377574638	0.6778190192743919	1.7163175133370168	0.09363327739494597	0.9382900441854615	1.771189431078813	0.25955092899420024	0.4825845458530634	0.3391016831548719	0.2630259278854851	0.42165270382983094	0.10882400337816969	0.26860376072716186	0.33477004943757166	0.22964907808698248	0.40199259195840165	0.5096001843214982	0.4405783799398484	0.46379790783128694	0.5644247110819253	0.6843187491900524	0.5169380809657783	0.5500104164466565	0.9456587046244378	0.5927546031736551	0.44342458503802107	1.0226992754068602	0.630020326890304	0.46407597678769374	1.0267237136004794	0.5965509800054764	0.5488639116157904	1.0365652162800376	0.09060844090762614	0.5254806671834336	0.4139546519252151	0.0755097465450114	0.5282885789914502	0.6754718066856085	-0.03065005789381622	0.5258914725256607	0.9150736387950537	-0.08602038848516534	0.47283118136690916	1.003770259074567	-0.138113921422508	0.5112903289110877	1.0271944194866458	-0.10690027015094894	0.6031218683899604	1.0350278464859426
201	3.406779661016949	0.34970695089451165	0.5993671403260545	0.8793250398814175	0.31750663926711997	0.7122948149817881	1.3042099779664682	0.3204884133547167	0.8865724307102124	1.7102244334757675	0.3184284746782215	0.6929596576894688	1.7208993871974672	0.3726969995094084	0.7024320238589673	1.7187707957297913	0.28358493951051766	1.0024898389494432	1.7886737009533469	0.13506813785318073	0.5941969321578365	0.8765964228062648	0.11530375223521445	0.7397094789371408	1.3157092393300491	0.09428392274035549	0.8609388267926199	1.7258091351589522	0.1409734386890264	0.62337297627563	1.6936192806859727	0.08788358104804964	0.692971536713048	1.7216666513021899	0.09451358992624403	0.9415573306165693	1.7770792154658297	0.25949501641769346	0.4826609472918667	0.3390983860441284	0.2630253981393694	0.4216746267115332	0.10874545580473838	0.2687672139046304	0.3343350740519375	0.22971581406153652	0.4020216681495911	0.5095358470244323	0.44055711399599146	0.46395915351406264	0.5637186113247169	0.6843208812455922	0.5070261462192369	0.5599004888350221	0.944488930390795	0.5804669476844977	0.4592674251571728	1.0269487757857094	0.6180284218625395	0.46457896147937316	1.0278518014136473	0.5960773210538328	0.5595821978502982	1.0386570147393623	0.09047136361526395	0.5255377141408625	0.4141456439061674	0.07152409012784168	0.5258089268678658	0.6754699464608979	-0.030704574632119248	0.5254602458814763	0.9149857213184776	-0.08119919644433732	0.46637938174193894	1.002914356393796	-0.13440003637945946	0.5133726615965094	1.0275295824610893	-0.10774401464429474	0.5759515528924388	1.034439815085723
202	3.4237288135593222	0.3507574197969441	0.5835971114682609	0.8738160103584679	0.3176101260815374	0.7122140330393997	1.3042127415636517	0.32129213666221906	0.8891409256040747	1.7161917232206134	0.3184034599144829	0.6930835851984742	1.7212152920328647	0.37261990874761447	0.7026008496701794	1.7189740652910792	0.28356732551842245	1.0022477350673227	1.7887492717581206	0.1344374630738885	0.5946885870864443	0.8801782184289855	0.1138019576800812	0.7378345545693228	1.3148493635824774	0.09372292492975152	0.8571692239834486	1.7200194886198743	0.14075056791978877	0.6427163208069602	1.7036934477844519	0.08707145471601994	0.6777751689898658	1.7159679737531326	0.10162693876278972	0.9204317018028492	1.764248464437355	0.2594674120097611	0.4826615639658033	0.3391015876943054	0.262950245656675	0.4218230032911199	0.10872114249000613	0.2735767369766854	0.321358537768621	0.22776331512684844	0.40197783113855445	0.5093104525196005	0.4405300569844938	0.4691815460989488	0.5511310580031374	0.6869967390650535	0.48836452419641413	0.5385702793807831	0.9472226062348156	0.549335421286357	0.4553021085990635	1.0334948957321473	0.5855551882585562	0.4919178834548825	1.0467127136686831	0.5848907605488273	0.5549509049289401	1.0469510621089562	0.09043588869920717	0.525447173544095	0.41409510968236696	0.07075346050447434	0.5234988894859247	0.6751517880968951	-0.030706181574845223	0.5253873668115508	0.9151420228937784	-0.07423407518476136	0.45372973292566116	1.0075818174213045	-0.13135713586968334	0.5001130712628362	1.0264739069643602	-0.10784803906780127	0.5751466093734192	1.0424347912794723
203	3.440677966101695	0.3548460284586636	0.5857574526176829	0.8817759152516058	0.3221199783989877	0.7139715250833562	1.3042775362756267	0.32051528875417445	0.8860302676983126	1.7100835798301697	0.32025009293656775	0.7086457755016795	1.7225852134675512	0.3749450033078964	0.7176540297448796	1.7198895982356925	0.28259985034228025	0.9986791047535242	1.782485101215108	0.13051788516717971	0.5931957114959238	0.8802698039884573	0.11377193939495912	0.7378280893984116	1.314783464100649	0.09372621713649028	0.8570279996363291	1.7198312224399934	0.14078162804425273	0.6431687543198173	1.703626077244964	0.08808339955319403	0.6931041450253155	1.7207904355990673	0.09817672515889861	0.9170781160128193	1.7631627642537187	0.2594474961978252	0.4826339428814489	0.3391539195176706	0.26290308370690707	0.4220705532462612	0.10872371877024704	0.27362413287633097	0.3211422568702792	0.22773410049031784	0.40682086239062126	0.496171809654877	0.44070006247219123	0.46634969896371586	0.5392192302585593	0.6906122061450704	0.4839259659756397	0.5163363157011966	0.9480590581395697	0.5145204766105789	0.44585089681431994	1.0406217166614318	0.5717537085498656	0.5158273713716321	1.0661640270112245	0.5815892673069121	0.555506532010877	1.0617808395178936	0.09040523927864502	0.5253634416074698	0.41404094748797865	0.06406015095539809	0.5369876802516047	0.6760182686035805	-0.030089352958606534	0.5247426274343586	0.9188007015501639	-0.055973063612448117	0.4510625608174191	1.006976791301202	-0.10036512160938017	0.4544218389911408	1.0208452610301695	-0.09831247250021281	0.5290220964715221	1.0349836878023673
204	3.457627118644068	0.35663286514352716	0.5692753075762945	0.8762705826299567	0.32303043761813455	0.7168878648863716	1.3090600506519483	0.32110252783549686	0.8885435412318157	1.7163208000505086	0.3207503856033721	0.7073230718234667	1.7260456588143835	0.37252047527410814	0.7046633874080938	1.7153610302170137	0.28345228291775826	1.0013396127138106	1.7894945307910053	0.13174204956537885	0.5945958690540304	0.885306723341258	0.11420872538402788	0.7413774378131243	1.3201084190711394	0.09377282874825284	0.8614451595749183	1.7219421362334544	0.14070710474940976	0.6430200115690927	1.7041118095576648	0.08849587349285494	0.6962137198984152	1.727153926726122	0.09760839381220542	0.9181471500745736	1.7598114026329381	0.25963247422204955	0.48272588316550924	0.34260056297832703	0.26282781207989253	0.4221154302104297	0.10868335459977753	0.2686293526117752	0.33247937264587973	0.22662377093660854	0.4069479104824425	0.4960857524089196	0.44069175185823634	0.46645078491457914	0.5394996094640954	0.6905362679969274	0.4710527348271789	0.5143517202579335	0.9492735309777809	0.4998568897576176	0.44099063007185324	1.0521838494547817	0.5346728945176715	0.4480862870603356	1.0706895162783099	0.5696576465612403	0.5418954813348937	1.067937083247195	0.09036170591242355	0.5253570262847164	0.41401175748944646	0.06046747911455701	0.5341332641425776	0.6724590513155956	-0.02667062669664695	0.5269227101685937	0.9156058345909172	-0.05039957529326439	0.4811203941530998	1.01538687458086	-0.0825071882889906	0.4335351229568575	1.021742470354026	-0.07633025870965623	0.4906923386733554	1.0199018748321167
205	3.4745762711864407	0.35778560014129135	0.5990590069528055	0.8794204546054871	0.32903977100032467	0.7017796554226275	1.3047943681086456	0.3212030699515002	0.888406669105492	1.7160668529787886	0.3146855106496092	0.7234321653994399	1.732552296069204	0.3725288989402428	0.7048575151665691	1.7153123498370249	0.2835284113356997	1.0013329426364033	1.7890251234667214	0.12648451965353782	0.6226822942228587	0.888781031612071	0.10644167046471226	0.7580266317712144	1.3291184355038637	0.09751361932069506	0.8641956183556909	1.7225261202038968	0.14188949562507783	0.6415557536153916	1.7002483737151266	0.0885935108216721	0.6959218307790495	1.727392387001884	0.09985677563687144	0.9087717481149595	1.761392641213328	0.25961306903522413	0.48275537741050645	0.3425624999644533	0.2628336092433146	0.42220028513927266	0.10865864230524036	0.26859512209261766	0.33270017146382014	0.2265638511209001	0.40705396522014126	0.49626530033849675	0.44072230001548063	0.46896495868206683	0.5498229245489084	0.6869092092411792	0.4720432576601973	0.5158528075130823	0.9571537413953402	0.4658800985060827	0.5141960734229143	1.0850370799757338	0.5110695317407674	0.4387367547506141	1.093711962623763	0.557063481830391	0.5064035572260491	1.076994112748462	0.09026209754317002	0.5254176573060049	0.41401068251848755	0.05593407279326037	0.5319507939680855	0.6759610328578495	-0.008653399412649662	0.503252453994548	0.9153320947480937	-0.03607942224841732	0.47679886532585986	1.0290934180232054	-0.07147472952555554	0.45203316212849215	1.0349795183753205	-0.06160931828606274	0.4720991747837987	1.0286975966304097
